<svg width="40" height="40" viewBox="0 0 40 40" fill="none" xmlns="http://www.w3.org/2000/svg">
<path d="M32.7778 5.00207H7.21361C6.01358 4.98852 5.01457 5.96432 4.99994 7.16435V32.8347C5.01403 34.0354 6.01291 35.0123 7.21361 34.9994H32.7778C33.9815 35.0146 34.9838 34.0378 34.9999 32.8347V7.1626C34.9838 5.96002 33.9801 4.98436 32.7778 5.00019M30.5619 30.5617H26.1167V23.6004C26.1167 21.9404 26.087 19.8035 23.8048 19.8035C21.4895 19.8035 21.1353 21.612 21.1353 23.4795V30.5612H16.6902V16.2459H20.9575V18.2022H21.0173C21.8862 16.7167 23.5077 15.8261 25.2277 15.8899C29.733 15.8899 30.5637 18.8533 30.5637 22.7086L30.5619 30.5617ZM11.6746 14.2891C10.2595 14.2891 9.09449 13.1248 9.09449 11.7096C9.09449 10.2945 10.259 9.13004 11.6741 9.13004C13.0891 9.13004 14.2534 10.2942 14.2537 11.7091C14.2537 13.124 13.0895 14.289 11.6746 14.2891ZM13.8971 30.5617H9.4474V16.2459H13.8971V30.5617Z" stroke="#FBFAF8" stroke-width="2" stroke-linecap="round" stroke-linejoin="round"/>
</svg>
