<svg width="40" height="40" viewBox="0 0 40 40" fill="none" xmlns="http://www.w3.org/2000/svg">
<path fill-rule="evenodd" clip-rule="evenodd" d="M19.9999 5.83325C11.7124 5.83325 4.99988 12.3332 4.99988 20.3582C4.99988 26.7847 9.29252 32.2129 15.2538 34.1381L15.2586 34.1392C16.0067 34.265 16.2874 33.8298 16.2874 33.4489C16.2874 33.1077 16.269 31.985 16.2686 30.7835C16.2686 30.7627 16.249 30.7471 16.2285 30.7507C12.4929 31.4043 11.5238 29.8511 11.2249 29.0369C11.0561 28.6193 10.3249 27.3302 9.68738 26.9853C9.16238 26.7129 8.41238 26.0411 9.66863 26.023C10.8499 26.0048 11.6936 27.0761 11.9749 27.5118C13.3164 29.6949 15.454 29.0991 16.3272 28.7173C16.3377 28.7127 16.3446 28.703 16.3462 28.6916C16.4739 27.8004 16.8361 27.1864 17.2413 26.8186C17.263 26.7989 17.2517 26.7621 17.2225 26.7588C13.9087 26.3847 10.4749 25.1086 10.4749 19.5957C10.4749 18.0242 11.0502 16.7223 11.9976 15.7078C12.0066 15.6982 12.0095 15.6851 12.0046 15.673C11.8456 15.2801 11.3536 13.8142 12.1563 11.8578C12.1601 11.8485 12.1678 11.8413 12.1776 11.8391C12.3276 11.8038 13.5962 11.5808 16.2746 13.3234C16.2825 13.3286 16.2926 13.3303 16.3018 13.3279C17.4976 13.0037 18.7675 12.8416 20.0374 12.8416C21.3072 12.8416 22.5771 13.0037 23.7729 13.3278C23.7821 13.3303 23.7922 13.3286 23.8002 13.3233C26.4801 11.5628 27.7485 11.8019 27.8974 11.8389C27.907 11.8413 27.9146 11.8484 27.9184 11.8575C28.7212 13.8141 28.2291 15.2801 28.0702 15.673C28.0653 15.6851 28.0682 15.6982 28.0771 15.7078C29.0246 16.7221 29.5999 18.0062 29.5999 19.5957C29.5999 25.1263 26.1479 26.3848 22.8339 26.7588C22.8047 26.7621 22.7934 26.799 22.8153 26.8187C23.3334 27.2855 23.7686 28.1425 23.7686 29.4545C23.7686 31.3972 23.7499 32.9587 23.7499 33.4489C23.7499 33.8302 24.0311 34.2841 24.7811 34.1388C27.7589 33.1654 30.3465 31.3123 32.1796 28.8401C34.0127 26.3681 34.9991 23.4016 34.9999 20.3582C34.9999 12.3332 28.2874 5.83325 19.9999 5.83325Z" stroke="#FBFAF8" stroke-width="2" stroke-linecap="round" stroke-linejoin="round"/>
</svg>
